<svg xmlns="http://www.w3.org/2000/svg" width="52.809" height="42.89" viewBox="0 0 52.809 42.89">
  <path id="Icon_awesome-twitter" data-name="Icon awesome-twitter" d="M47.381,14.07c.034.469.034.938.034,1.407,0,14.308-10.89,30.794-30.794,30.794A30.585,30.585,0,0,1,0,41.413a22.391,22.391,0,0,0,2.614.134A21.675,21.675,0,0,0,16.05,36.922a10.842,10.842,0,0,1-10.12-7.506,13.649,13.649,0,0,0,2.044.168,11.447,11.447,0,0,0,2.848-.369A10.825,10.825,0,0,1,2.144,18.593v-.134a10.9,10.9,0,0,0,4.892,1.374A10.839,10.839,0,0,1,3.686,5.358,30.764,30.764,0,0,0,26,16.683a12.218,12.218,0,0,1-.268-2.48A10.833,10.833,0,0,1,44.465,6.8a21.309,21.309,0,0,0,6.869-2.614,10.794,10.794,0,0,1-4.758,5.964,21.7,21.7,0,0,0,6.232-1.675,23.266,23.266,0,0,1-5.428,5.6Z" transform="translate(0 -3.381)" fill="#afb0b3"/>
</svg>
