<svg xmlns="http://www.w3.org/2000/svg" width="40.615" height="40.614" viewBox="0 0 40.615 40.614">
  <path id="Icon_awesome-linkedin-in" data-name="Icon awesome-linkedin-in" d="M9.091,40.615H.671V13.5h8.42ZM4.877,9.8A4.9,4.9,0,1,1,9.753,4.877,4.918,4.918,0,0,1,4.877,9.8ZM40.606,40.615H32.2v-13.2c0-3.146-.063-7.18-4.378-7.18-4.378,0-5.049,3.418-5.049,6.954V40.615H14.366V13.5h8.076v3.7h.118a8.848,8.848,0,0,1,7.967-4.379c8.522,0,10.088,5.612,10.088,12.9v14.9Z" transform="translate(0 -0.001)" fill="#afb0b3"/>
</svg>
