<svg xmlns="http://www.w3.org/2000/svg" width="45.428" height="45.418" viewBox="0 0 45.428 45.418">
  <path id="Icon_awesome-instagram" data-name="Icon awesome-instagram" d="M22.714,13.3A11.645,11.645,0,1,0,34.358,24.947,11.626,11.626,0,0,0,22.714,13.3Zm0,19.215a7.57,7.57,0,1,1,7.57-7.57,7.584,7.584,0,0,1-7.57,7.57ZM37.551,12.826a2.716,2.716,0,1,1-2.716-2.716A2.71,2.71,0,0,1,37.551,12.826Zm7.712,2.757c-.172-3.638-1-6.861-3.669-9.516S35.716,2.58,32.078,2.4c-3.75-.213-14.989-.213-18.739,0-3.628.172-6.851,1-9.516,3.659S.337,11.934.154,15.572c-.213,3.75-.213,14.989,0,18.739.172,3.638,1,6.861,3.669,9.516S9.7,47.313,13.339,47.5c3.75.213,14.989.213,18.739,0,3.638-.172,6.861-1,9.516-3.669s3.486-5.878,3.669-9.516c.213-3.75.213-14.979,0-18.729ZM40.419,38.334A7.664,7.664,0,0,1,36.1,42.651c-2.99,1.186-10.084.912-13.388.912s-10.408.263-13.388-.912a7.664,7.664,0,0,1-4.317-4.317C3.823,35.345,4.1,28.25,4.1,24.947s-.263-10.408.912-13.388A7.664,7.664,0,0,1,9.326,7.242c2.99-1.186,10.084-.912,13.388-.912s10.408-.263,13.388.912a7.664,7.664,0,0,1,4.317,4.317c1.186,2.99.912,10.084.912,13.388S41.6,35.355,40.419,38.334Z" transform="translate(0.005 -2.238)" fill="#afb0b3"/>
</svg>
