<svg xmlns="http://www.w3.org/2000/svg" width="72.18" height="72.164" viewBox="0 0 72.18 72.164">
  <path id="Icon_awesome-instagram" data-name="Icon awesome-instagram" d="M36.093,19.818a18.5,18.5,0,1,0,18.5,18.5A18.473,18.473,0,0,0,36.093,19.818Zm0,30.531A12.029,12.029,0,1,1,48.122,38.32,12.051,12.051,0,0,1,36.093,50.349ZM59.667,19.061a4.316,4.316,0,1,1-4.316-4.316A4.306,4.306,0,0,1,59.667,19.061Zm12.254,4.38c-.274-5.781-1.594-10.9-5.829-15.12-4.219-4.219-9.34-5.539-15.12-5.829-5.958-.338-23.816-.338-29.774,0C15.433,2.765,10.313,4.085,6.078,8.3S.538,17.644.248,23.425C-.09,29.383-.09,47.241.248,53.2c.274,5.781,1.594,10.9,5.829,15.12s9.34,5.539,15.12,5.829c5.958.338,23.816.338,29.774,0,5.781-.274,10.9-1.594,15.12-5.829,4.219-4.219,5.539-9.34,5.829-15.12.338-5.958.338-23.8,0-29.758Zm-7.7,36.151a12.178,12.178,0,0,1-6.86,6.86C52.614,68.335,41.343,67.9,36.093,67.9s-16.537.419-21.272-1.449a12.178,12.178,0,0,1-6.86-6.86C6.078,54.841,6.512,43.569,6.512,38.32S6.094,21.782,7.962,17.048a12.178,12.178,0,0,1,6.86-6.86C19.572,8.3,30.844,8.739,36.093,8.739s16.537-.419,21.272,1.449a12.178,12.178,0,0,1,6.86,6.86c1.884,4.75,1.449,16.022,1.449,21.272S66.108,54.857,64.224,59.592Z" transform="translate(0.005 -2.238)" fill="#f3b48a"/>
</svg>
