<svg xmlns="http://www.w3.org/2000/svg" width="64.533" height="64.532" viewBox="0 0 64.533 64.532">
  <path id="Icon_awesome-linkedin-in" data-name="Icon awesome-linkedin-in" d="M14.445,64.533H1.066V21.448H14.445Zm-6.7-48.962A7.785,7.785,0,1,1,15.5,7.749,7.814,7.814,0,0,1,7.748,15.571ZM64.519,64.533H51.169V43.559c0-5-.1-11.409-6.956-11.409-6.956,0-8.022,5.431-8.022,11.048V64.533H22.826V21.448H35.658v5.877h.187c1.786-3.385,6.149-6.958,12.659-6.958,13.541,0,16.03,8.917,16.03,20.5V64.533Z" transform="translate(0 -0.001)" fill="#f3b48a"/>
</svg>
