<svg xmlns="http://www.w3.org/2000/svg" width="83.908" height="68.149" viewBox="0 0 83.908 68.149">
  <path id="Icon_awesome-twitter" data-name="Icon awesome-twitter" d="M75.283,20.365c.053.745.053,1.491.053,2.236,0,22.734-17.3,48.929-48.929,48.929A48.6,48.6,0,0,1,0,63.81a35.578,35.578,0,0,0,4.153.213A34.44,34.44,0,0,0,25.5,56.675,17.227,17.227,0,0,1,9.424,44.749a21.687,21.687,0,0,0,3.248.266A18.188,18.188,0,0,0,17.2,44.43,17.2,17.2,0,0,1,3.407,27.552v-.213a17.319,17.319,0,0,0,7.773,2.183,17.223,17.223,0,0,1-5.324-23,48.882,48.882,0,0,0,35.459,18,19.413,19.413,0,0,1-.426-3.94A17.213,17.213,0,0,1,70.651,8.811,33.857,33.857,0,0,0,81.565,4.659a17.151,17.151,0,0,1-7.56,9.477,34.475,34.475,0,0,0,9.9-2.662,36.967,36.967,0,0,1-8.625,8.891Z" transform="translate(0 -3.381)" fill="#f3b48a"/>
</svg>
